<?xml version="1.0" encoding="utf-8"?>
<!-- Generator: Adobe Illustrator 26.0.0, SVG Export Plug-In . SVG Version: 6.00 Build 0)  -->
<svg version="1.1" id="Layer_1" xmlns="http://www.w3.org/2000/svg" xmlns:xlink="http://www.w3.org/1999/xlink" x="0px" y="0px"
	 viewBox="0 0 448 512" style="enable-background:new 0 0 448 512;" xml:space="preserve">
<style type="text/css">
	.st0{fill:#FFFFFF;}
</style>
<path class="st0" d="M272,304h-96C78.8,304,0,382.8,0,480c0,17.7,14.3,32,32,32h384c17.7,0,32-14.3,32-32
	C448,382.8,369.2,304,272,304z M49,464c7.9-63.1,61.8-112,127-112h96c65.2,0,119.1,49,127,112H49z M224,256c70.7,0,128-57.3,128-128
	S294.7,0,224,0S96,57.3,96,128C96,198.7,153.3,256,224,256z M224,48c44.1,0,80,35.9,80,80s-35.9,80-80,80s-80-35.9-80-80
	C144,83.9,179.9,48,224,48z"/>
</svg>
