<svg id="visual" viewBox="0 0 900 600" width="900" height="600" xmlns="http://www.w3.org/2000/svg" xmlns:xlink="http://www.w3.org/1999/xlink" version="1.1"><rect x="0" y="0" width="900" height="600" fill="#ffffff"></rect><defs><linearGradient id="grad1_0" x1="33.3%" y1="0%" x2="100%" y2="100%"><stop offset="20%" stop-color="#ffffff" stop-opacity="1"></stop><stop offset="80%" stop-color="#ffffff" stop-opacity="1"></stop></linearGradient></defs><defs><linearGradient id="grad2_0" x1="0%" y1="0%" x2="66.7%" y2="100%"><stop offset="20%" stop-color="#ffffff" stop-opacity="1"></stop><stop offset="80%" stop-color="#ffffff" stop-opacity="1"></stop></linearGradient></defs><g transform="translate(900, 0)"><path d="M0 486.7C-63.8 481 -127.5 475.3 -186.3 449.7C-245 424.1 -298.8 378.8 -325.3 325.3C-351.7 271.8 -350.9 210.2 -373.2 154.6C-395.6 99 -441.2 49.5 -486.7 0L0 0Z" fill="#FBAE3C"></path></g><g transform="translate(0, 600)"><path d="M0 -486.7C48.5 -443.7 96.9 -400.6 158.8 -383.4C220.7 -366.2 296.1 -375 344.2 -344.2C392.3 -313.4 413.2 -243 432.4 -179.1C451.6 -115.1 469.2 -57.6 486.7 0L0 0Z" fill="#FBAE3C"></path></g></svg>